<?xml version="1.0" encoding="UTF-8"?>
<svg width="108px" height="108px" viewBox="0 0 108 108" version="1.1" xmlns="http://www.w3.org/2000/svg" xmlns:xlink="http://www.w3.org/1999/xlink">
    <title>Group</title>
    <defs>
        <rect id="path-1" x="0" y="0" width="100" height="100" rx="8"></rect>
        <filter x="-7.0%" y="-5.0%" width="114.0%" height="114.0%" filterUnits="objectBoundingBox" id="filter-2">
            <feOffset dx="0" dy="2" in="SourceAlpha" result="shadowOffsetOuter1"></feOffset>
            <feGaussianBlur stdDeviation="2" in="shadowOffsetOuter1" result="shadowBlurOuter1"></feGaussianBlur>
            <feComposite in="shadowBlurOuter1" in2="SourceAlpha" operator="out" result="shadowBlurOuter1"></feComposite>
            <feColorMatrix values="0 0 0 0 0   0 0 0 0 0   0 0 0 0 0  0 0 0 0.5 0" type="matrix" in="shadowBlurOuter1"></feColorMatrix>
        </filter>
        <filter x="-15.4%" y="-12.6%" width="130.8%" height="125.3%" filterUnits="objectBoundingBox" id="filter-3">
            <feOffset dx="0" dy="2" in="SourceAlpha" result="shadowOffsetOuter1"></feOffset>
            <feGaussianBlur stdDeviation="2" in="shadowOffsetOuter1" result="shadowBlurOuter1"></feGaussianBlur>
            <feColorMatrix values="0 0 0 0 0   0 0 0 0 0   0 0 0 0 0  0 0 0 0.5 0" type="matrix" in="shadowBlurOuter1" result="shadowMatrixOuter1"></feColorMatrix>
            <feMerge>
                <feMergeNode in="shadowMatrixOuter1"></feMergeNode>
                <feMergeNode in="SourceGraphic"></feMergeNode>
            </feMerge>
        </filter>
        <filter id="filter-4">
            <feColorMatrix in="SourceGraphic" type="matrix" values="0 0 0 0 0.847000 0 0 0 0 0.847000 0 0 0 0 0.847000 0 0 0 1.000000 0"></feColorMatrix>
        </filter>
    </defs>
    <g id="Page-1" stroke="none" stroke-width="1" fill="none" fill-rule="evenodd">
        <g id="A5" transform="translate(-148.000000, -245.000000)">
            <g id="Group" transform="translate(152.000000, 247.000000)">
                <g id="Rectangle">
                    <use fill="black" fill-opacity="1" filter="url(#filter-2)" xlink:href="#path-1"></use>
                    <rect stroke="#EDF1FF" stroke-width="1" stroke-linejoin="square" fill="#4287F5" fill-rule="evenodd" x="0.5" y="0.5" width="99" height="99" rx="8"></rect>
                </g>
                <g id="drinking-(2)" filter="url(#filter-3)" transform="translate(11.000000, 3.000000)">
                    <g id="g1665" fill="#000000" fill-rule="nonzero">
                        <path d="M49.3561818,19.2716742 C54.6685418,19.2716742 58.9748982,14.9575566 58.9748982,9.6358371 C58.9748982,4.31454751 54.6685418,0 49.3561818,0 C44.0440364,0 39.7374655,4.31454751 39.7374655,9.6358371 C39.7374655,14.9575566 44.0440364,19.2716742 49.3561818,19.2716742 Z" id="path1667"></path>
                        <path d="M27.258,11.5164932 C32.7289091,8.72237557 40.3452727,13.8807466 40.3929018,19.5536652 L40.3929018,37.8888801 L49.1148182,47.5176244 C53.1107273,52.0311991 46.7809927,58.2107127 42.37616,53.7042308 L32.5079273,42.8331787 C31.8973309,42.2408258 31.4397055,41.5197285 31.4397055,39.846052 L31.4397055,31.0660747 L14.2559018,40.3711312 L14.2559018,87.0651357 C14.2559018,97.59681 0,97.5946606 0,87.156267 L0,31.8114593 C0,28.7211652 1.22097389,25.7207127 4.27353091,23.9696606 L27.258,11.5164932 Z" id="path1669"></path>
                    </g>
                    <g id="g1671" transform="translate(43.000000, 16.000000)">
                        <path d="M19.659908,42.8006364 L34.7960123,42.8006364 L34.7960123,14.8938535 L4.30521472,14.8397778 C0.386503067,14.8397778 -1.08092025,19.3098232 1.35276074,22.1150303 L19.659908,42.8006364 Z" id="path1673" fill="#000000" fill-rule="nonzero"></path>
                        <g filter="url(#filter-4)" id="g1675">
                            <g transform="translate(9.662577, 0.000000)">
                                <g id="g1677" transform="translate(0.000000, 11.075758)" fill="#000000" fill-rule="nonzero">
                                    <path d="M1.20825153,2.5070303 C1.85822086,2.5070303 2.38493865,1.97409091 2.38493865,1.31692929 C2.38493865,0.659550505 1.85822086,0.126611111 1.20825153,0.126611111 C0.558496933,0.126611111 0.0315644172,0.659550505 0.0315644172,1.31692929 C0.0315644172,1.97409091 0.558496933,2.5070303 1.20825153,2.5070303 Z" id="path1679"></path>
                                </g>
                                <g id="g1683" transform="translate(3.006135, 11.292929)" fill="#000000" fill-rule="nonzero">
                                    <path d="M1.35361963,2.49834343 C2.00337423,2.49834343 2.53030675,1.96540404 2.53030675,1.30824242 C2.53030675,0.650863636 2.00337423,0.118141414 1.35361963,0.118141414 C0.703650307,0.118141414 0.176932515,0.650863636 0.176932515,1.30824242 C0.176932515,1.96540404 0.703650307,2.49834343 1.35361963,2.49834343 Z" id="path1685"></path>
                                </g>
                                <g id="g1689" transform="translate(3.220859, 7.818182)" fill="#000000" fill-rule="nonzero">
                                    <path d="M1.3407362,2.45577778 C1.9904908,2.45577778 2.51742331,1.92283838 2.51742331,1.26567677 C2.51742331,0.60829798 1.9904908,0.0753585859 1.3407362,0.0753585859 C0.690766871,0.0753585859 0.16404908,0.60829798 0.16404908,1.26567677 C0.16404908,1.92283838 0.690766871,2.45577778 1.3407362,2.45577778 Z" id="path1691"></path>
                                </g>
                                <g id="g1695" transform="translate(0.214724, 7.601010)" fill="#000000" fill-rule="nonzero">
                                    <path d="M1.20782209,2.451 C1.85779141,2.451 2.3845092,1.91827778 2.3845092,1.26089899 C2.3845092,0.603737374 1.85779141,0.0707979798 1.20782209,0.0707979798 C0.558067485,0.0707979798 0.0311349693,0.603737374 0.0311349693,1.26089899 C0.0311349693,1.91827778 0.558067485,2.451 1.20782209,2.451 Z" id="path1697"></path>
                                </g>
                                <g id="g1701" transform="translate(1.073620, 4.126263)" fill="#000000" fill-rule="nonzero">
                                    <path d="M1.36822086,2.66361111 C2.0506135,2.66361111 2.60374233,2.10417677 2.60374233,1.41400505 C2.60374233,0.723833333 2.0506135,0.16439899 1.36822086,0.16439899 C0.685828221,0.16439899 0.132699387,0.723833333 0.132699387,1.41400505 C0.132699387,2.10417677 0.685828221,2.66361111 1.36822086,2.66361111 Z" id="path1703"></path>
                                </g>
                                <g id="g1707" transform="translate(4.938650, 4.777778)" fill="#000000" fill-rule="nonzero">
                                    <path d="M1.33365031,2.63733333 C2.01604294,2.63733333 2.56917178,2.07789899 2.56917178,1.38772727 C2.56917178,0.697555556 2.01604294,0.138121212 1.33365031,0.138121212 C0.651257669,0.138121212 0.0981288344,0.697555556 0.0981288344,1.38772727 C0.0981288344,2.07789899 0.651257669,2.63733333 1.33365031,2.63733333 Z" id="path1709"></path>
                                </g>
                                <g id="g1713" transform="translate(3.435583, 1.520202)" fill="#000000" fill-rule="nonzero">
                                    <path d="M1.47558282,2.67425253 C2.19211656,2.67425253 2.77294479,2.08680303 2.77294479,1.36210101 C2.77294479,0.63739899 2.19211656,0.0499494949 1.47558282,0.0499494949 C0.759263804,0.0499494949 0.178220859,0.63739899 0.178220859,1.36210101 C0.178220859,2.08680303 0.759263804,2.67425253 1.47558282,2.67425253 Z" id="path1715"></path>
                                </g>
                                <g id="g1719" transform="translate(7.944785, 3.474747)" fill="#000000" fill-rule="nonzero">
                                    <path d="M1.40171779,2.80412121 C2.11825153,2.80412121 2.69907975,2.21667172 2.69907975,1.4919697 C2.69907975,0.767484848 2.11825153,0.180035354 1.40171779,0.180035354 C0.685398773,0.180035354 0.104355828,0.767484848 0.104355828,1.4919697 C0.104355828,2.21667172 0.685398773,2.80412121 1.40171779,2.80412121 Z" id="path1721"></path>
                                </g>
                                <g id="g1725" transform="translate(6.441718, 0.217172)" fill="#000000" fill-rule="nonzero">
                                    <path d="M1.49319018,2.83083333 C2.2095092,2.83083333 2.79033742,2.24338384 2.79033742,1.51868182 C2.79033742,0.793979798 2.2095092,0.206530303 1.49319018,0.206530303 C0.776656442,0.206530303 0.195828221,0.793979798 0.195828221,1.51868182 C0.195828221,2.24338384 0.776656442,2.83083333 1.49319018,2.83083333 Z" id="path1727"></path>
                                </g>
                                <g id="g1731" transform="translate(9.877301, 0.000000)" fill="#000000" fill-rule="nonzero">
                                    <path d="M1.55653374,3.05234848 C2.34628834,3.05234848 2.98680982,2.40474242 2.98680982,1.60576768 C2.98680982,0.806792929 2.34628834,0.159186869 1.55653374,0.159186869 C0.766564417,0.159186869 0.126042945,0.806792929 0.126042945,1.60576768 C0.126042945,2.40474242 0.766564417,3.05234848 1.55653374,3.05234848 Z" id="path1733"></path>
                                </g>
                                <g id="g1737" transform="translate(10.950920, 4.560606)" fill="#000000" fill-rule="nonzero">
                                    <path d="M1.59196319,2.97329798 C2.38193252,2.97329798 3.02223926,2.32547475 3.02223926,1.52671717 C3.02223926,0.727742424 2.38193252,0.0799191919 1.59196319,0.0799191919 C0.801993865,0.0799191919 0.161687117,0.727742424 0.161687117,1.52671717 C0.161687117,2.32547475 0.801993865,2.97329798 1.59196319,2.97329798 Z" id="path1739"></path>
                                </g>
                                <g id="g1743" transform="translate(13.098160, 1.520202)" fill="#000000" fill-rule="nonzero">
                                    <path d="M1.63297546,3.24606566 C2.46223926,3.24606566 3.1347546,2.56588384 3.1347546,1.72716667 C3.1347546,0.888232323 2.46223926,0.208050505 1.63297546,0.208050505 C0.803496933,0.208050505 0.130981595,0.888232323 0.130981595,1.72716667 C0.130981595,2.56588384 0.803496933,3.24606566 1.63297546,3.24606566 Z" id="path1745"></path>
                                </g>
                                <g id="g1749" transform="translate(15.889571, 4.343434)" fill="#000000" fill-rule="nonzero">
                                    <path d="M1.71242331,3.36485859 C2.58334356,3.36485859 3.28935583,2.65079798 3.28935583,1.76994949 C3.28935583,0.88910101 2.58334356,0.175040404 1.71242331,0.175040404 C0.841503067,0.175040404 0.135490798,0.88910101 0.135490798,1.76994949 C0.135490798,2.65079798 0.841503067,3.36485859 1.71242331,3.36485859 Z" id="path1751"></path>
                                </g>
                                <g id="g1755" transform="translate(13.098160, 7.166667)" fill="#000000" fill-rule="nonzero">
                                    <path d="M1.78092025,3.3555202 C2.65162577,3.3555202 3.35763804,2.6414596 3.35763804,1.76061111 C3.35763804,0.879762626 2.65162577,0.16570202 1.78092025,0.16570202 C0.91,0.16570202 0.20398773,0.879762626 0.20398773,1.76061111 C0.20398773,2.6414596 0.91,3.3555202 1.78092025,3.3555202 Z" id="path1757"></path>
                                </g>
                            </g>
                        </g>
                    </g>
                </g>
            </g>
        </g>
    </g>
</svg>