<?xml version="1.0" encoding="UTF-8"?>
<svg width="191px" height="283px" viewBox="0 0 191 283" version="1.1" xmlns="http://www.w3.org/2000/svg" xmlns:xlink="http://www.w3.org/1999/xlink">
    <title>Group 2</title>
    <defs>
        <filter x="-11.9%" y="-7.7%" width="123.7%" height="115.5%" filterUnits="objectBoundingBox" id="filter-1">
            <feOffset dx="0" dy="2" in="SourceAlpha" result="shadowOffsetOuter1"></feOffset>
            <feGaussianBlur stdDeviation="2" in="shadowOffsetOuter1" result="shadowBlurOuter1"></feGaussianBlur>
            <feColorMatrix values="0 0 0 0 1   0 0 0 0 1   0 0 0 0 1  0 0 0 1 0" type="matrix" in="shadowBlurOuter1" result="shadowMatrixOuter1"></feColorMatrix>
            <feMerge>
                <feMergeNode in="shadowMatrixOuter1"></feMergeNode>
                <feMergeNode in="SourceGraphic"></feMergeNode>
            </feMerge>
        </filter>
        <filter id="filter-2">
            <feColorMatrix in="SourceGraphic" type="matrix" values="0 0 0 0 0.258824 0 0 0 0 0.529412 0 0 0 0 0.960784 0 0 0 1.000000 0"></feColorMatrix>
        </filter>
        <filter x="-6.8%" y="-4.4%" width="113.6%" height="108.9%" filterUnits="objectBoundingBox" id="filter-3">
            <feOffset dx="0" dy="2" in="SourceAlpha" result="shadowOffsetOuter1"></feOffset>
            <feGaussianBlur stdDeviation="2" in="shadowOffsetOuter1" result="shadowBlurOuter1"></feGaussianBlur>
            <feColorMatrix values="0 0 0 0 0   0 0 0 0 0   0 0 0 0 0  0 0 0 0.5 0" type="matrix" in="shadowBlurOuter1" result="shadowMatrixOuter1"></feColorMatrix>
            <feMerge>
                <feMergeNode in="shadowMatrixOuter1"></feMergeNode>
                <feMergeNode in="SourceGraphic"></feMergeNode>
            </feMerge>
        </filter>
        <path d="M83.3750728,270.707405 C57.0829873,269.272821 32.5184267,255.855234 16.9075009,234.399755 C8.7754937,223.218433 3.21370638,209.864137 1.08590139,196.362164 C-0.494151829,186.383361 -0.346680196,175.792751 1.50724891,165.877239 C3.38224539,155.856243 7.15330573,145.961828 12.5676214,136.869093 C18.2136782,127.396614 26.1350117,118.535944 35.0043771,111.827151 C38.7122353,109.021272 44.5689659,105.266036 47.3077248,103.958032 C48.0240156,103.620483 48.0872177,103.493902 50.9734482,95.6669767 C63.8666825,60.7095234 74.7163812,32.6929283 85.1447324,7.48221209 L87.8624239,0.9 L90.2851722,0.942193667 L92.6868531,1.00548417 L93.9087609,4.38097755 C94.5618496,6.23749891 97.1742042,13.6424875 99.7233567,20.8365078 C102.272509,28.0305281 104.884864,35.4355167 105.55902,37.292038 C106.212109,39.1274625 108.339914,45.161157 110.29918,50.6885274 C112.258446,56.2158978 114.386251,62.2495922 115.039339,64.0850167 C116.15591,67.228445 123.213481,87.1649527 127.258417,98.5783397 L129.00701,103.536096 L131.176949,104.759712 C143.501364,111.658377 153.782244,121.025371 161.556106,132.396564 C174.723216,151.615779 179.716184,175.033265 175.586978,198.155394 C171.731649,219.653068 159.807514,239.188736 142.321591,252.606322 C133.915708,259.08305 123.550559,264.357258 113.564623,267.247525 C106.296378,269.357208 100.650321,270.306566 92.9185942,270.728502 C88.5576474,270.960567 87.8624239,270.960567 83.3750728,270.707405 Z" id="path-4"></path>
        <filter x="-10.4%" y="-8.6%" width="120.9%" height="117.1%" filterUnits="objectBoundingBox" id="filter-6">
            <feOffset dx="0" dy="2" in="SourceAlpha" result="shadowOffsetOuter1"></feOffset>
            <feGaussianBlur stdDeviation="2" in="shadowOffsetOuter1" result="shadowBlurOuter1"></feGaussianBlur>
            <feColorMatrix values="0 0 0 0 0   0 0 0 0 0   0 0 0 0 0  0 0 0 0.5 0" type="matrix" in="shadowBlurOuter1" result="shadowMatrixOuter1"></feColorMatrix>
            <feMerge>
                <feMergeNode in="shadowMatrixOuter1"></feMergeNode>
                <feMergeNode in="SourceGraphic"></feMergeNode>
            </feMerge>
        </filter>
        <filter id="filter-7">
            <feColorMatrix in="SourceGraphic" type="matrix" values="0 0 0 0 1.000000 0 0 0 0 1.000000 0 0 0 0 1.000000 0 0 0 1.000000 0"></feColorMatrix>
        </filter>
        <filter id="filter-8">
            <feColorMatrix in="SourceGraphic" type="matrix" values="0 0 0 0 1.000000 0 0 0 0 1.000000 0 0 0 0 1.000000 0 0 0 1.000000 0"></feColorMatrix>
        </filter>
    </defs>
    <g id="Page-1" stroke="none" stroke-width="1" fill="none" fill-rule="evenodd">
        <g id="A5" transform="translate(-41.000000, -15.000000)">
            <g id="Group-2" filter="url(#filter-1)" transform="translate(48.000000, 17.900000)">
                <g filter="url(#filter-2)" id="Group">
                    <g filter="url(#filter-3)" transform="translate(88.500000, 135.500000) scale(-1, 1) rotate(-180.000000) translate(-88.500000, -135.500000) ">
                        <mask id="mask-5" fill="white">
                            <use xlink:href="#path-4"></use>
                        </mask>
                        <use id="Path" fill="#000000" fill-rule="nonzero" xlink:href="#path-4"></use>
                    </g>
                </g>
                <g id="drinking-(2)" transform="translate(31.000000, 12.100000)" filter="url(#filter-6)">
                    <g filter="url(#filter-7)" id="g1665">
                        <g>
                            <path d="M73.7993524,28.400362 C81.7426072,28.400362 88.1816448,22.0427149 88.1816448,14.200181 C88.1816448,6.35828054 81.7426072,0 73.7993524,0 C65.8564184,0 59.41706,6.35828054 59.41706,14.200181 C59.41706,22.0427149 65.8564184,28.400362 73.7993524,28.400362 Z" id="path1667" fill="#000000" fill-rule="nonzero"></path>
                            <path d="M40.7572603,16.9716742 C48.9375841,12.8540271 60.325878,20.4558371 60.3970949,28.8159276 L60.3970949,55.8362443 L73.4384558,70.0259729 C79.4133001,76.6775566 69.9488259,85.7842081 63.3625425,79.1430769 L48.6071631,63.1225792 C47.6941748,62.249638 47.0099148,61.1869683 47.0099148,58.7204977 L47.0099148,45.7815837 L21.315999,59.4942986 L21.315999,128.306516 C21.315999,143.826878 0,143.82371 0,128.440814 L0,46.8800452 C0,42.3259276 1.82564937,37.9042081 6.38995567,35.3237104 L40.7572603,16.9716742 Z" id="path1669" fill="#000000" fill-rule="nonzero"></path>
                        </g>
                    </g>
                    <g id="g1671" transform="translate(63.013699, 22.937853)">
                        <path d="M29.2013115,63.770755 L51.6833137,63.770755 L51.6833137,22.1910786 L6.394634,22.1105085 C0.574081856,22.1105085 -1.60551559,28.7706471 2.00928649,32.9502619 L29.2013115,63.770755 Z" id="path1673" fill="#FFFFFF" fill-rule="nonzero"></path>
                        <g filter="url(#filter-8)" id="g1675">
                            <g transform="translate(14.352046, 0.000000)">
                                <g id="g1677" transform="translate(0.000000, 16.502311)" fill="#000000" fill-rule="nonzero">
                                    <path d="M1.79464367,3.73534669 C2.76005799,3.73534669 3.54240398,2.9412943 3.54240398,1.96215716 C3.54240398,0.982696456 2.76005799,0.188644068 1.79464367,0.188644068 C0.829548281,0.188644068 0.0468833515,0.982696456 0.0468833515,1.96215716 C0.0468833515,2.9412943 0.829548281,3.73534669 1.79464367,3.73534669 Z" id="path1679"></path>
                                </g>
                                <g id="g1683" transform="translate(4.465081, 16.825886)" fill="#000000" fill-rule="nonzero">
                                    <path d="M2.01056223,3.7224037 C2.97565762,3.7224037 3.75832255,2.92835131 3.75832255,1.94921418 C3.75832255,0.969753467 2.97565762,0.176024653 2.01056223,0.176024653 C1.04514791,0.176024653 0.262801916,0.969753467 0.262801916,1.94921418 C0.262801916,2.92835131 1.04514791,3.7224037 2.01056223,3.7224037 Z" id="path1685"></path>
                                </g>
                                <g id="g1689" transform="translate(4.784015, 11.648690)" fill="#000000" fill-rule="nonzero">
                                    <path d="M1.99142617,3.65898305 C2.95652156,3.65898305 3.73918649,2.86493066 3.73918649,1.88579353 C3.73918649,0.90633282 2.95652156,0.112280431 1.99142617,0.112280431 C1.02601185,0.112280431 0.243665854,0.90633282 0.243665854,1.88579353 C0.243665854,2.86493066 1.02601185,3.65898305 1.99142617,3.65898305 Z" id="path1691"></path>
                                </g>
                                <g id="g1695" transform="translate(0.318934, 11.325116)" fill="#000000" fill-rule="nonzero">
                                    <path d="M1.7940058,3.65186441 C2.75942012,3.65186441 3.54176611,2.85813559 3.54176611,1.87867488 C3.54176611,0.89953775 2.75942012,0.105485362 1.7940058,0.105485362 C0.828910413,0.105485362 0.0462454828,0.89953775 0.0462454828,1.87867488 C0.0462454828,2.85813559 0.828910413,3.65186441 1.7940058,3.65186441 Z" id="path1697"></path>
                                </g>
                                <g id="g1701" transform="translate(1.594672, 6.147920)" fill="#000000" fill-rule="nonzero">
                                    <path d="M2.03224977,3.96864407 C3.04582318,3.96864407 3.8673981,3.13511556 3.8673981,2.10679507 C3.8673981,1.07847458 3.04582318,0.244946071 2.03224977,0.244946071 C1.01867636,0.244946071 0.197101437,1.07847458 0.197101437,2.10679507 C0.197101437,3.13511556 1.01867636,3.96864407 2.03224977,3.96864407 Z" id="path1703"></path>
                                </g>
                                <g id="g1707" transform="translate(7.335490, 7.118644)" fill="#000000" fill-rule="nonzero">
                                    <path d="M1.98090134,3.92949153 C2.99447475,3.92949153 3.81604967,3.09596302 3.81604967,2.06764253 C3.81604967,1.03932203 2.99447475,0.205793529 1.98090134,0.205793529 C0.967327927,0.205793529 0.145753004,1.03932203 0.145753004,2.06764253 C0.145753004,3.09596302 0.967327927,3.92949153 1.98090134,3.92949153 Z" id="path1709"></path>
                                </g>
                                <g id="g1713" transform="translate(5.102950, 2.265023)" fill="#000000" fill-rule="nonzero">
                                    <path d="M2.19171695,3.98449923 C3.25600092,3.98449923 4.11871838,3.10922958 4.11871838,2.02946071 C4.11871838,0.949691834 3.25600092,0.074422188 2.19171695,0.074422188 C1.12775191,0.074422188 0.264715522,0.949691834 0.264715522,2.02946071 C0.264715522,3.10922958 1.12775191,3.98449923 2.19171695,3.98449923 Z" id="path1715"></path>
                                </g>
                                <g id="g1719" transform="translate(11.800571, 5.177196)" fill="#000000" fill-rule="nonzero">
                                    <path d="M2.08200353,4.17799692 C3.1462875,4.17799692 4.00900496,3.30272727 4.00900496,2.2229584 C4.00900496,1.1435131 3.1462875,0.268243451 2.08200353,0.268243451 C1.01803849,0.268243451 0.155002101,1.1435131 0.155002101,2.2229584 C0.155002101,3.30272727 1.01803849,4.17799692 2.08200353,4.17799692 Z" id="path1721"></path>
                                </g>
                                <g id="g1725" transform="translate(9.568031, 0.323575)" fill="#000000" fill-rule="nonzero">
                                    <path d="M2.21786957,4.21779661 C3.28183461,4.21779661 4.14455206,3.34252696 4.14455206,2.26275809 C4.14455206,1.18298921 3.28183461,0.307719569 2.21786957,0.307719569 C1.1535856,0.307719569 0.29086814,1.18298921 0.29086814,2.26275809 C0.29086814,3.34252696 1.1535856,4.21779661 2.21786957,4.21779661 Z" id="path1727"></path>
                                </g>
                                <g id="g1731" transform="translate(14.670981, 0.000000)" fill="#000000" fill-rule="nonzero">
                                    <path d="M2.31195521,4.54784284 C3.4849958,4.54784284 4.43637701,3.58294299 4.43637701,2.39251156 C4.43637701,1.20208012 3.4849958,0.237180277 2.31195521,0.237180277 C1.13859568,0.237180277 0.187214472,1.20208012 0.187214472,2.39251156 C0.187214472,3.58294299 1.13859568,4.54784284 2.31195521,4.54784284 Z" id="path1733"></path>
                                </g>
                                <g id="g1737" transform="translate(16.265653, 6.795069)" fill="#000000" fill-rule="nonzero">
                                    <path d="M2.36457938,4.43006163 C3.5379389,4.43006163 4.48900118,3.46483821 4.48900118,2.27473035 C4.48900118,1.08429892 3.5379389,0.119075501 2.36457938,0.119075501 C1.19121985,0.119075501 0.240157576,1.08429892 0.240157576,2.27473035 C0.240157576,3.46483821 1.19121985,4.43006163 2.36457938,4.43006163 Z" id="path1739"></path>
                                </g>
                                <g id="g1743" transform="translate(19.454996, 2.265023)" fill="#000000" fill-rule="nonzero">
                                    <path d="M2.42549584,4.83647149 C3.65722035,4.83647149 4.65612278,3.82303544 4.65612278,2.57338983 C4.65612278,1.32342065 3.65722035,0.309984592 2.42549584,0.309984592 C1.19345239,0.309984592 0.194549962,1.32342065 0.194549962,2.57338983 C0.194549962,3.82303544 1.19345239,4.83647149 2.42549584,4.83647149 Z" id="path1745"></path>
                                </g>
                                <g id="g1749" transform="translate(23.601143, 6.471495)" fill="#000000" fill-rule="nonzero">
                                    <path d="M2.54350155,5.01346687 C3.83709934,5.01346687 4.88575553,3.94955316 4.88575553,2.63713405 C4.88575553,1.32471495 3.83709934,0.260801233 2.54350155,0.260801233 C1.24990377,0.260801233 0.201247584,1.32471495 0.201247584,2.63713405 C0.201247584,3.94955316 1.24990377,5.01346687 2.54350155,5.01346687 Z" id="path1751"></path>
                                </g>
                                <g id="g1755" transform="translate(19.454996, 10.677966)" fill="#000000" fill-rule="nonzero">
                                    <path d="M2.64524162,4.99955316 C3.93852046,4.99955316 4.98717665,3.93563945 4.98717665,2.62322034 C4.98717665,1.31080123 3.93852046,0.246887519 2.64524162,0.246887519 C1.35164384,0.246887519 0.302987646,1.31080123 0.302987646,2.62322034 C0.302987646,3.93563945 1.35164384,4.99955316 2.64524162,4.99955316 Z" id="path1757"></path>
                                </g>
                            </g>
                        </g>
                    </g>
                </g>
            </g>
        </g>
    </g>
</svg>